<?xml version="1.0" standalone="no"?>
<!DOCTYPE svg PUBLIC "-//W3C//DTD SVG 20010904//EN"
 "http://www.w3.org/TR/2001/REC-SVG-20010904/DTD/svg10.dtd">
<svg version="1.0" xmlns="http://www.w3.org/2000/svg"
 width="982.000000pt" height="219.000000pt" viewBox="0 0 982.000000 219.000000"
 preserveAspectRatio="xMidYMid meet">

<g transform="translate(0.000000,219.000000) scale(0.100000,-0.100000)"
fill="#000000" stroke="none">
<path d="M4060 2050 c-537 -19 -945 -72 -1253 -165 -62 -18 -139 -41 -172 -50
-58 -16 -514 -184 -830 -305 -88 -34 -176 -67 -195 -74 -665 -246 -579 -227
-1290 -281 -107 -8 -203 -15 -213 -15 -28 0 -57 -37 -57 -73 0 -19 16 -83 36
-142 32 -96 36 -116 31 -173 -4 -35 -10 -69 -15 -76 -5 -6 -14 -25 -20 -43 -6
-17 -27 -57 -46 -87 l-36 -56 0 -255 0 -255 4910 0 4910 0 0 249 0 250 -42 34
c-175 142 -556 327 -848 410 -342 99 -604 134 -1200 162 -184 8 -349 17 -366
19 -19 3 -114 59 -240 144 -465 310 -783 506 -947 581 -351 163 -589 197
-1423 205 -252 2 -565 1 -694 -4z"/>
</g>
</svg>
