<svg width="1280" height="227" xmlns="http://www.w3.org/2000/svg" xmlns:xlink="http://www.w3.org/1999/xlink" xml:space="preserve" overflow="hidden"><defs><clipPath id="clip0"><rect x="0" y="217" width="1280" height="227"/></clipPath></defs><g clip-path="url(#clip0)" transform="matrix(1 0 0 1 0 -217)"><path d="M529.206 267.21C459.21 264.733 406.029 257.825 365.882 245.703 357.8 243.356 347.764 240.358 343.462 239.185 335.902 237.1 276.464 215.202 235.275 199.43 223.804 194.998 212.334 190.697 209.857 189.784 123.177 157.719 134.387 160.196 41.7108 153.157 27.7637 152.114 15.2505 151.202 13.947 151.202 10.2974 151.202 6.51731 146.379 6.51731 141.686 6.51731 139.21 8.60285 130.868 11.2098 123.177 15.3809 110.664 15.9022 108.057 15.2505 100.627 14.7291 96.0652 13.947 91.6334 13.2953 90.721 12.6436 89.9389 11.4705 87.4623 10.6884 85.1161 9.90631 82.9002 7.16904 77.6864 4.69246 73.776L0 66.4766 0 33.2383 0 0 640 0 1280 0 1280 32.4562 1280 65.0428 1274.53 69.4745C1251.71 87.9837 1202.05 112.098 1163.99 122.917 1119.41 135.821 1085.26 140.383 1007.58 144.033 983.593 145.075 962.086 146.248 959.87 146.509 957.393 146.9 945.01 154.2 928.587 165.279 867.976 205.686 826.526 231.234 805.149 241.01 759.397 262.257 728.375 266.688 619.666 267.731 586.819 267.992 546.02 267.862 529.206 267.21Z" transform="matrix(1 0 0 -1.00103 0 502.789)"/></g></svg>